# xmcd
#
# Track frame offsets:
#	150
#	18652
#	36882
#	54084
#	83965
#	95299
#	113900
#	137554
#	152872
#	188318
#
# Disc length: 3158 seconds
# Revision: 0
# Processed by: cddbd v1.5.2PL0 Copyright (c) Steve Scherf et al.
# Submitted via: dBpowerAMP V12.0
#
DISCID=720c540a
DTITLE=Various Artist - Live in Studio
DYEAR=1900
DGENRE=
TTITLE0=Rude Mood
TTITLE1=Mary Had A Little Lamb
TTITLE2=Texas Flood - Pride And Joy
TTITLE3=Lenny
TTITLE4=Love Struck Baby
TTITLE5=Cold Shot
TTITLE6=Texas Flood
TTITLE7=Life By The Drop
TTITLE8=Little Wing
TTITLE9=Voodoo Chile (Full Return)
EXTD=
EXTT0=
EXTT1=
EXTT2=
EXTT3=
EXTT4=
EXTT5=
EXTT6=
EXTT7=
EXTT8=
EXTT9=
PLAYORDER=
